<svg width="41" height="41" fill="none" xmlns="http://www.w3.org/2000/svg"><g clip-path="url(#clip0)"><path d="M40.702 6.868a1.282 1.282 0 00-.984-.462H8.61c-.397 0-.774.185-1.017.5a1.29 1.29 0 00-.22 1.112l4.1 15.324c.15.564.658.95 1.237.95.02 0 .043 0 .064-.002l24.446-1.23a1.285 1.285 0 001.196-1.048L40.98 7.918a1.274 1.274 0 00-.277-1.05z" fill="#BED1E1"/><path d="M32.03 19.219a1.282 1.282 0 01-1.28-1.281v-5.125a1.282 1.282 0 012.562 0v5.125a1.28 1.28 0 01-1.281 1.28zm-7.687 0a1.282 1.282 0 01-1.28-1.281v-5.125a1.282 1.282 0 012.562 0v5.125c0 .707-.574 1.28-1.282 1.28zm-7.687 0a1.282 1.282 0 01-1.281-1.281v-5.125a1.282 1.282 0 012.562 0v5.125a1.28 1.28 0 01-1.281 1.28z" fill="#FAFAFA"/><path d="M16.656 39.718a3.844 3.844 0 100-7.687 3.844 3.844 0 000 7.687zm15.374 0a3.844 3.844 0 100-7.687 3.844 3.844 0 000 7.687zm2.563-10.249h-20.5c-.581 0-1.088-.39-1.237-.951L6.268 3.844H1.28a1.282 1.282 0 010-2.562h5.97c.582 0 1.09.389 1.238.95l6.588 24.674h19.516a1.282 1.282 0 010 2.563z" fill="#455A64"/></g><defs><clipPath id="clip0"><path fill="#fff" d="M0 0h41v41H0z"/></clipPath></defs></svg>