<svg width="127" height="101" fill="none" xmlns="http://www.w3.org/2000/svg"><g clip-path="url(#clip0)"><path d="M7.023 87.603c.389-.32.584-.784.584-1.395 0-.61-.198-1.082-.594-1.413-.396-.332-.957-.498-1.683-.498H2.743v3.783H5.35c.725 0 1.283-.159 1.673-.477zm-4.28-5.275h2.47c.688 0 1.21-.153 1.567-.458.357-.305.534-.745.534-1.316 0-.572-.175-1.015-.526-1.326-.349-.312-.888-.468-1.614-.468H2.743v3.568zm6.915 2.077c.5.617.75 1.342.75 2.174 0 1.157-.387 2.07-1.158 2.74-.771.67-1.89 1.003-3.356 1.003H0V76.556h5.777c1.388 0 2.455.306 3.2.917.746.61 1.12 1.469 1.12 2.574 0 .858-.224 1.56-.672 2.105-.447.547-1.034.904-1.76 1.073.829.17 1.494.563 1.993 1.18zm7.364-1.337h2.256c1.57 0 2.355-.695 2.355-2.086 0-.663-.192-1.18-.574-1.55-.384-.37-.977-.556-1.781-.556h-2.256v4.192zm4.416 7.254l-3.21-5.362h-1.206v5.362h-2.743V76.555h5.233c1.595 0 2.811.39 3.648 1.17.836.78 1.254 1.808 1.254 3.08 0 1.041-.288 1.912-.865 2.614-.577.701-1.41 1.17-2.5 1.404l3.424 5.498h-3.034zm14.396-4.855l-2.024-5.81-2.022 5.81h4.045zm.739 2.086h-5.505l-.973 2.769h-2.899l5.059-13.61h3.132l5.039 13.61h-2.9l-.953-2.769zm18.909 2.769h-2.743l-6.147-9.36v9.36h-2.743V76.556h2.743l6.147 9.438v-9.438h2.743v13.766zm12.519-3.627c.811-.78 1.214-1.872 1.214-3.276 0-1.416-.403-2.515-1.214-3.295-.812-.78-1.952-1.17-3.435-1.17h-1.905v8.912h1.905c1.483 0 2.623-.39 3.435-1.17zm3.14.332c-.57 1.04-1.396 1.85-2.476 2.428-1.087.578-2.375.867-3.864.867h-4.884V76.555h4.884c1.49 0 2.777.284 3.864.849 1.08.566 1.905 1.364 2.475 2.398.57 1.034.858 2.24.858 3.617 0 1.366-.288 2.568-.858 3.608z" fill="#566E98"/><path d="M38.29 0s35.413 13.401 34.662 32.794h.013v32.794S37.55 52.186 38.302 32.794h-.012V0zm66.217 57.915a48.35 48.35 0 0122.492-8.311V39.335a45.862 45.862 0 00-13.242 7.876 46.048 46.048 0 00-9.25 10.704z" fill="#BED1E1"/><path d="M100.482 61.004a47.764 47.764 0 0111.975-15.332A47.872 47.872 0 01127 37.18V7.601s-50.433 19.085-49.366 46.7h-.013V101s2.247-.852 5.782-2.452a48.605 48.605 0 01.161-4.517c1.094-13.327 7.487-24.968 16.918-33.027z" fill="#BED1E1"/><path d="M95.686 78.355a48.249 48.249 0 011.763-9.561 45.143 45.143 0 00-10.545 25.514 44.33 44.33 0 00-.133 2.664 149.107 149.107 0 009.7-5.126 48.406 48.406 0 01-.785-13.491zm2.005.165a46.268 46.268 0 00.624 12.242c13.779-8.263 29.268-21.029 28.664-36.462h.02v-1.314c-10.029 1.111-19.179 5.552-26.215 12.271a46.193 46.193 0 00-3.093 13.263z" fill="#BED1E1"/></g><defs><clipPath id="clip0"><path fill="#fff" d="M0 0h127v101H0z"/></clipPath></defs></svg>