<svg width="59" height="39" fill="none" xmlns="http://www.w3.org/2000/svg"><path d="M38.476 38.71H0V0h38.476v13.245h-1.784V1.795H1.784v35.12h34.908V25.379h1.784v13.33z" fill="#fff"/><path d="M7.861 15.379h1.787v3.427l2.558-3.427h2.144l-2.937 3.63 3.172 4.236h-2.268l-2.67-3.742v3.742H7.862v-7.866zm11.385 6.244c1.441 0 2.189-1.025 2.189-2.311 0-1.396-.965-2.312-2.19-2.312-1.256 0-2.188.916-2.188 2.312 0 1.308.975 2.311 2.189 2.311zm0-6.258c2.308 0 4.031 1.516 4.031 3.947 0 2.311-1.723 3.947-4.031 3.947s-4.031-1.516-4.031-3.947c0-2.213 1.614-3.947 4.03-3.947zm11.547 7.88l-3.707-4.72v4.72H25.41V15.38h1.43l3.708 4.74-.003-4.74h1.676l.002 7.864h-1.43zm3.581-7.866h6.478v1.685h-2.345v6.18h-1.788v-6.18h-2.345V15.38zm15.148 4.482c0 2.405-1.519 3.383-3.194 3.383-2.01 0-3.407-1.158-3.407-3.461v-4.4h1.788V19.4c0 1.224.368 2.157 1.619 2.157 1.083 0 1.407-.798 1.407-2.056v-4.12h1.787v4.48zm3.935-2.771v1.742h.648c.681 0 1.217-.247 1.217-.91 0-.439-.222-.834-1.082-.834-.268 0-.415-.009-.783.002zm-1.787 6.154v-7.862h2.658c2.133 0 2.893 1.068 2.893 2.517 0 1.461-.894 2.057-1.318 2.27l2.26 3.075h-2.167l-1.88-2.727h-.66v2.727H51.67z" fill="#fff"/></svg>